<svg width="1209" height="1612" viewBox="0 0 1209 1612" fill="none" xmlns="http://www.w3.org/2000/svg">
<path fill-rule="evenodd" clip-rule="evenodd" d="M228.604 604.324C228.204 607.458 230.212 611.271 234.228 618.896L708.709 1519.68C710.899 1523.84 711.994 1525.92 713.638 1527.23C714.527 1527.93 715.527 1528.48 716.591 1528.85C741.911 1546.89 832.781 1540.04 935.481 1510.67C1039.86 1480.83 1123.23 1431.88 1132.65 1402.23C1133.03 1401.59 1133.34 1400.91 1133.58 1400.2C1134.22 1398.2 1133.99 1395.87 1133.53 1391.21L1054.79 597.467V597.466C1054.28 592.299 1054.03 589.715 1052.85 587.775C1051.81 586.066 1050.29 584.707 1048.47 583.873C1046.41 582.926 1043.81 582.967 1038.62 583.048L248.134 595.441C239.517 595.576 235.208 595.643 232.651 597.499C230.418 599.118 228.954 601.588 228.604 604.324Z" fill="#FE9332"/>
<path d="M1055.5 593.001C1054.93 649.059 871.053 691.938 639.013 689.559C406.972 687.18 225.426 649.559 226 593.501C226.575 537.443 409.054 484.175 641.094 486.554C873.134 488.933 1056.08 536.943 1055.5 593.001Z" fill="#FF7701"/>
<path fill-rule="evenodd" clip-rule="evenodd" d="M1092.92 111.275C1091.97 100.27 1082.27 92.1233 1071.27 93.078C1060.27 94.0327 1052.12 103.727 1053.07 114.732L1165.61 1411.95C1166.1 1413.95 1166.27 1416.01 1166.15 1418.11L1166.18 1418.52C1166.16 1418.52 1166.14 1418.52 1166.12 1418.52C1163.5 1452.02 1084.29 1497.39 936.553 1540.28C782.977 1584.86 691.118 1582.21 674.796 1555.54C674.788 1555.55 674.779 1555.55 674.77 1555.56L674.483 1555.01C674.262 1554.62 674.057 1554.23 673.867 1553.83L66.7431 387.992C61.6413 378.195 49.5635 374.389 39.7666 379.491C29.9698 384.593 26.1637 396.671 31.2655 406.468L647.066 1588.96C648.05 1590.85 649.293 1592.52 650.73 1593.94C665.984 1618.71 798.258 1620.6 946.143 1576.8C1081.99 1536.56 1187.53 1490.19 1205.71 1451.98C1207.02 1449.68 1207.88 1447.1 1208.19 1444.37C1208.57 1442.04 1208.6 1439.75 1208.25 1437.51C1208.15 1436.88 1208.01 1436.27 1207.82 1435.68L1092.92 111.275Z" fill="white"/>
<path d="M1081.13 122.97L1081.13 122.972C1081.13 122.982 1081.14 123.022 1081.15 123.129C1081.15 123.247 1081.15 123.522 1081.06 123.987C1080.88 124.952 1080.35 126.719 1078.89 129.347C1075.85 134.812 1069.82 142.145 1059.55 151.097C1039.08 168.944 1006.16 189.464 961.916 211.317C873.818 254.829 745.878 301.176 596.79 341.124C447.837 381.036 310.359 404.63 208.757 410.753C157.747 413.826 117.115 412.406 89.0141 407.05C74.9027 404.36 65.3783 400.935 59.5674 397.585C55.8282 395.429 54.5739 393.89 54.222 393.336C54.2497 392.681 54.5667 390.721 56.727 386.984C60.0842 381.177 66.62 373.449 77.496 364.064C99.1544 345.375 133.632 323.829 179.345 300.986C270.396 255.487 401.253 207.181 550.206 167.269C699.041 127.389 833.449 105.798 931.954 101.625C981.41 99.5298 1020.48 101.892 1047.38 107.874C1060.88 110.874 1069.97 114.5 1075.54 117.963C1078.23 119.637 1079.69 121.022 1080.43 121.895C1080.78 122.317 1080.96 122.607 1081.04 122.755C1081.11 122.897 1081.13 122.961 1081.13 122.97ZM54.103 393.11C54.1059 393.109 54.124 393.143 54.1483 393.212C54.1122 393.145 54.1001 393.111 54.103 393.11ZM54.2204 393.481C54.2339 393.553 54.2349 393.591 54.2321 393.592C54.2292 393.593 54.2224 393.556 54.2204 393.481Z" stroke="white" stroke-width="50"/>
<path d="M595.957 1076.31L716.078 1084.81C721.765 1103.96 724.413 1117.9 724.024 1126.61L549.253 1109.53L539.1 1075.33L673.931 957.894C678.924 964.682 684.308 977.804 690.084 997.26L595.957 1076.31ZM896.33 1031.3L992.352 958.625L870.336 943.744C865.733 928.24 863.783 914.429 864.485 902.312L1039.46 926.775L1049.62 960.975L912.483 1070.66C907.4 1063.57 902.016 1050.45 896.33 1031.3Z" fill="black"/>
<path d="M749.441 1199.41L782.879 836.596L814.365 829.662L780.927 1192.47L749.441 1199.41Z" fill="black"/>
</svg>
